<?xml version="1.0" encoding="UTF-8" standalone="no"?>
<svg width="32px" height="32px" viewBox="0 0 32 32" version="1.1" xmlns="http://www.w3.org/2000/svg" xmlns:xlink="http://www.w3.org/1999/xlink" xmlns:sketch="http://www.bohemiancoding.com/sketch/ns">
    <!-- Generator: Sketch 3.3.3 (12072) - http://www.bohemiancoding.com/sketch -->
    <title>safari9_icon</title>
    <desc>Created with Sketch.</desc>
    <defs></defs>
    <g id="Page-1" stroke="none" stroke-width="1" fill="none" fill-rule="evenodd" sketch:type="MSPage">
        <g id="safari9_icon" sketch:type="MSArtboardGroup" fill="#000000">
            <path d="M16.0657582,32 L16.0184023,31.9996903 L15.9710464,31.998658 L15.9237405,31.9970064 L15.8765346,31.9946837 L15.8293787,31.9916901 L15.7823728,31.9880254 L15.7354669,31.9837414 L15.6887111,31.9787348 L15.6421553,31.9731088 L15.5957995,31.9667602 L15.5496437,31.9597923 L15.503738,31.9521533 L15.4580823,31.9438433 L15.4127266,31.934914 L15.367671,31.9252621 L15.3229154,31.9149908 L15.2785598,31.9039969 L15.2345543,31.8923836 L15.1909489,31.8800994 L15.1477935,31.8671441 L15.1050381,31.8535179 L15.0627828,31.8392206 L15.0209776,31.824304 L14.9796725,31.8086648 L14.9389174,31.7924062 L14.8986623,31.7754766 L14.8590574,31.7578761 L14.8200025,31.7396045 L14.7815477,31.720662 L14.743743,31.7010484 L14.7066383,31.6808155 L14.6701838,31.65986 L3.43607951,25.0668731 L3.400025,25.0450918 L3.36417052,25.022433 L3.32846606,24.9988451 L3.29301163,24.9743282 L3.25770721,24.9489338 L3.22265283,24.922662 L3.18779847,24.8955644 L3.15319415,24.8675893 L3.11883985,24.8388916 L3.0847856,24.809368 L3.05098137,24.7790703 L3.01747718,24.7479983 L2.98427303,24.7162554 L2.95141893,24.6837898 L2.91886486,24.6506016 L2.88671084,24.6167941 L2.85485686,24.5823156 L2.82340293,24.5472177 L2.79229904,24.5115004 L2.76164521,24.4752153 L2.73139142,24.4383625 L2.70153769,24.400942 L2.67213402,24.3630053 L2.64313039,24.3245524 L2.61462683,24.285635 L2.58662333,24.2462015 L2.55906988,24.206355 L2.53206651,24.1660441 L2.50551319,24.1253718 L2.47950994,24.0842866 L2.45405676,24.0428401 L2.42915364,24.0009807 L2.4048006,23.9588632 L2.38104763,23.916436 L2.35784473,23.8736475 L2.33529191,23.8306526 L2.31333917,23.7873996 L2.2919865,23.7438885 L2.27128391,23.700171 L2.25128141,23.6562986 L2.23187898,23.6122197 L2.21317665,23.5679861 L2.1952244,23.5236491 L2.17792224,23.4791574 L2.16132017,23.4345624 L2.14551819,23.3899674 L2.1304163,23.3452692 L2.11606451,23.3005194 L2.10246281,23.2557695 L2.08971121,23.2110713 L2.07770971,23.1663215 L2.06650831,23.1216749 L2.05615702,23.0770799 L2.04660583,23.0325365 L2.03795474,22.988148 L2.03010376,22.9438627 L2.02315289,22.8997322 L2.01710214,22.8557566 L2.01190149,22.8119359 L2.00765096,22.7683732 L2.00435054,22.7249653 L2.00195024,22.6818672 L2.00050006,22.6390271 L2,22.596445 L2,9.40350334 L2.00050006,9.36092132 L2.00195024,9.31808123 L2.00435054,9.27493145 L2.00770096,9.23157521 L2.0120015,9.1879609 L2.01720215,9.14419175 L2.02335292,9.10021614 L2.03035379,9.05608568 L2.03820478,9.01180038 L2.04695587,8.96736024 L2.05655707,8.92286848 L2.06700838,8.87827349 L2.07825978,8.83357528 L2.09031129,8.78887706 L2.1032129,8.74412723 L2.11686461,8.69942901 L2.13126641,8.65467918 L2.14646831,8.60998097 L2.1624203,8.56533437 L2.17907238,8.52079099 L2.19647456,8.47629924 L2.21457682,8.43196232 L2.23337917,8.38772864 L2.25288161,8.3436498 L2.27303413,8.29977741 L2.29383673,8.25605987 L2.31528941,8.21254879 L2.33734217,8.16929578 L2.36004501,8.12630085 L2.38334792,8.08351237 L2.40725091,8.0410852 L2.43170396,7.99896771 L2.45670709,7.95715991 L2.48231029,7.9156618 L2.50841355,7.8745766 L2.53506688,7.83390432 L2.56222028,7.79359334 L2.58987373,7.7537469 L2.61802725,7.71436498 L2.64663083,7.67539598 L2.67568446,7.63694313 L2.70523815,7.59900642 L2.7351919,7.56158586 L2.76554569,7.52473306 L2.79629954,7.48844801 L2.82750344,7.45273073 L2.85905738,7.41763283 L2.89096137,7.3831543 L2.92326541,7.34934675 L2.95586948,7.3162102 L2.9888236,7.28369302 L3.02207776,7.25195006 L3.05563195,7.22092971 L3.08948619,7.19063196 L3.12364046,7.16110842 L3.15804476,7.13235911 L3.19269909,7.10443563 L3.22755344,7.07733798 L3.26270784,7.05106616 L3.29801225,7.0256718 L3.33351669,7.00115488 L3.36922115,6.97756702 L3.40512564,6.95485661 L3.44113014,6.93312688 L14.6600325,0.340140005 L14.6964871,0.319236104 L14.7336917,0.298951579 L14.7715464,0.279338043 L14.8101013,0.260395497 L14.8492562,0.242123939 L14.8890611,0.224523372 L14.9294662,0.207593793 L14.9704213,0.191335204 L15.0119265,0.17569599 L15.0539817,0.16077938 L15.0964871,0.146482145 L15.1395424,0.132855899 L15.1829979,0.119900642 L15.2269534,0.107616375 L15.2712589,0.0960030969 L15.3159645,0.0850091938 L15.3610701,0.0747378948 L15.4064758,0.0650859705 L15.4522315,0.0561050356 L15.4982873,0.0478467047 L15.5445931,0.0401561341 L15.5911989,0.0331881674 L15.6380048,0.02689119 L15.6850106,0.0212652021 L15.7322165,0.016258589 L15.7795224,0.0119229653 L15.8270284,0.00830994548 L15.8746343,0.00531630053 L15.9223403,0.00299364496 L15.9700963,0.00129036421 L16.0179022,0.000309687409 L16.0657582,0 L16.1135642,0.000309687409 L16.1613702,0.00129036421 L16.2091761,0.00299364496 L16.2568821,0.00531630053 L16.3044881,0.00830994548 L16.351944,0.0119229653 L16.3992999,0.016258589 L16.4465058,0.0212652021 L16.4935117,0.02689119 L16.5403175,0.0331881674 L16.5868734,0.0401561341 L16.6332292,0.0478467047 L16.6792849,0.0561050356 L16.7249906,0.0650859705 L16.7704463,0.0747378948 L16.8155019,0.0850091938 L16.8602575,0.0960030969 L16.9045631,0.107616375 L16.9485186,0.119900642 L16.991974,0.132855899 L17.0349794,0.146482145 L17.0775347,0.16077938 L17.1195899,0.17569599 L17.1610951,0.191335204 L17.2020503,0.207593793 L17.2424553,0.224523372 L17.2822603,0.242123939 L17.3214152,0.260395497 L17.35997,0.279338043 L17.3978247,0.298951579 L17.4350294,0.319236104 L17.4714839,0.340140005 L28.6347293,6.93312688 L28.6707338,6.95485661 L28.7064383,6.97756702 L28.7418927,7.00115488 L28.7769971,7.0256718 L28.8119015,7.05106616 L28.8464058,7.07733798 L28.8806601,7.10443563 L28.9145643,7.13235911 L28.9481685,7.16110842 L28.9813727,7.19063196 L29.0142768,7.22092971 L29.0467808,7.25195006 L29.0789349,7.28369302 L29.1106888,7.3162102 L29.1420928,7.34934675 L29.1730466,7.3831543 L29.2036005,7.41763283 L29.2337542,7.45273073 L29.2634579,7.48844801 L29.2927616,7.52473306 L29.3215652,7.56158586 L29.3499187,7.59900642 L29.3778222,7.63694313 L29.4052757,7.67539598 L29.432179,7.71436498 L29.4586323,7.7537469 L29.4845356,7.79359334 L29.5099887,7.83390432 L29.5348419,7.8745766 L29.5591949,7.9156618 L29.5829979,7.95715991 L29.6062508,7.99896771 L29.6289536,8.0410852 L29.6510564,8.08351237 L29.6726091,8.12630085 L29.6935117,8.16929578 L29.7138642,8.21254879 L29.7335667,8.25605987 L29.7526691,8.29977741 L29.7711714,8.3436498 L29.7889736,8.38772864 L29.8061758,8.43196232 L29.8226778,8.47629924 L29.8385298,8.52079099 L29.8536817,8.56533437 L29.8681835,8.60998097 L29.8819352,8.65467918 L29.8950369,8.69942901 L29.9073884,8.74412723 L29.9189899,8.78887706 L29.9298912,8.83357528 L29.9400425,8.87827349 L29.9493937,8.92286848 L29.9580448,8.96736024 L29.9658957,9.01180038 L29.9729466,9.05608568 L29.9791974,9.10021614 L29.9846481,9.14419175 L29.9892987,9.1879609 L29.9931491,9.23157521 L29.9961495,9.27493145 L29.9982998,9.31808123 L29.9995499,9.36092132 L30,9.40350334 L30,22.596445 L29.9995999,22.6390271 L29.9982998,22.6818672 L29.9961495,22.7249653 L29.9931991,22.7683732 L29.9893987,22.8119359 L29.9847981,22.8557566 L29.9793974,22.8997322 L29.9731466,22.9438627 L29.9661458,22.988148 L29.9583448,23.0325365 L29.9497937,23.0770799 L29.9404926,23.1216749 L29.9304413,23.1663215 L29.91964,23.2110713 L29.9080885,23.2557695 L29.895787,23.3005194 L29.8828354,23.3452692 L29.8691336,23.3899674 L29.8547818,23.4345624 L29.83968,23.4791574 L29.823928,23.5236491 L29.8075259,23.5679861 L29.7904738,23.6122197 L29.7727716,23.6562986 L29.7544193,23.700171 L29.7354169,23.7438885 L29.7158145,23.7873996 L29.695612,23.8306526 L29.6747593,23.8736475 L29.6533567,23.916436 L29.6313539,23.9588632 L29.6088011,24.0009807 L29.5856482,24.0428401 L29.5619952,24.0842866 L29.5377422,24.1253718 L29.5129891,24.1660441 L29.487686,24.206355 L29.4618827,24.2462015 L29.4355294,24.285635 L29.4087261,24.3245524 L29.3814227,24.3630053 L29.3536192,24.400942 L29.3253657,24.4383625 L29.2966621,24.4752153 L29.2674584,24.5115004 L29.2378547,24.5472177 L29.207801,24.5823156 L29.1773472,24.6167941 L29.1464433,24.6506016 L29.1151894,24.6837898 L29.0834854,24.7162554 L29.0514314,24.7479983 L29.0189774,24.7790703 L28.9861233,24.809368 L28.9529691,24.8388916 L28.9194649,24.8675893 L28.8855607,24.8955644 L28.8514064,24.922662 L28.8169021,24.9489338 L28.7820478,24.9743282 L28.7469434,24.9988451 L28.7114889,25.022433 L28.6757845,25.0450918 L28.63983,25.0668731 L17.4613827,31.65986 L17.4249281,31.6808155 L17.3877735,31.7010484 L17.3499687,31.720662 L17.3115139,31.7396045 L17.2724591,31.7578761 L17.2328541,31.7754766 L17.1925991,31.7924062 L17.151844,31.8086648 L17.1105388,31.824304 L17.0687336,31.8392206 L17.0264783,31.8535179 L16.983723,31.8671441 L16.9405176,31.8800994 L16.8969121,31.8923836 L16.8529566,31.9039969 L16.8085511,31.9149908 L16.7638455,31.9252621 L16.7187898,31.934914 L16.6734342,31.9438433 L16.6277785,31.9521533 L16.5818727,31.9597923 L16.535717,31.9667602 L16.4893612,31.9731088 L16.4428054,31.9787348 L16.3960495,31.9837414 L16.3491436,31.9880254 L16.3020878,31.9916901 L16.2549819,31.9946837 L16.207726,31.9970064 L16.1604701,31.998658 L16.1131141,31.9996903 L16.0657582,32 Z M21.5865497,14.0651163 C21.2814971,14.0651163 21.0339181,13.8150698 21.0339181,13.5069768 L21.0339181,11.5786047 C21.0339181,11.2705116 20.7863392,11.0204651 20.4812865,11.0204651 L18.0752456,11.0204651 L18.0719298,20.4213953 C18.0719298,20.7294884 18.3195088,20.9795349 18.6245614,20.9795349 L20.5426901,20.9795349 C20.8477427,20.9795349 21.0953216,21.2295814 21.0953216,21.5376744 L21.0953216,23.4418605 C21.0953216,23.7499535 20.8477427,24 20.5426901,24 L11.5573099,24 C11.2522573,24 11.0046784,23.7499535 11.0046784,23.4418605 L11.0046784,21.5376744 C11.0046784,21.2295814 11.2522573,20.9795349 11.5573099,20.9795349 L13.4754386,20.9795349 C13.7804912,20.9795349 14.0280702,20.7294884 14.0280702,20.4213953 L14.0247544,11.0204651 L11.6187135,11.0204651 C11.3136608,11.0204651 11.0660819,11.2705116 11.0660819,11.5786047 L11.0660819,13.5069768 C11.0660819,13.8150698 10.8185029,14.0651163 10.5134503,14.0651163 L8.55263158,14.0651163 C8.24757895,14.0651163 8,13.8150698 8,13.5069768 L8,8.55813953 C8,8.25004651 8.24757895,8 8.55263158,8 L23.4473684,8 C23.7524211,8 24,8.25004651 24,8.55813953 L24,13.5069768 C24,13.8150698 23.7524211,14.0651163 23.4473684,14.0651163 L21.5865497,14.0651163 Z" id="Imported-Layers" sketch:type="MSShapeGroup"></path>
        </g>
    </g>
</svg>